<?xml version="1.0" encoding="UTF-8"?>
<svg width="132px" height="130px" viewBox="0 0 132 130" version="1.1" xmlns="http://www.w3.org/2000/svg" xmlns:xlink="http://www.w3.org/1999/xlink">
    <!-- Generator: Sketch 52.6 (67491) - http://www.bohemiancoding.com/sketch -->
    <title>iconattention</title>
    <desc>Created with Sketch.</desc>
    <g id="Page-1" stroke="none" stroke-width="1" fill="none" fill-rule="evenodd">
        <g id="contrast-variant" transform="translate(-167.000000, 0.000000)" fill="#000000" fill-rule="nonzero">
            <g id="attention" transform="translate(167.000000, 0.000000)">
                <path d="M66,0 C29.58474,0 0,29.1364864 0,65 C0,100.863514 29.58474,130 66,130 C102.41526,130 132,100.863514 132,65 C132,29.1364864 102.41526,0 66,0 Z M66,5.90909091 C99.17262,5.90909091 126,32.3299955 126,65 C126,97.6700045 99.17262,124.090909 66,124.090909 C32.82738,124.090909 6,97.6700045 6,65 C6,32.3299955 32.82738,5.90909091 66,5.90909091 Z M62.4375,33.4232955 C61.5375,33.4232955 61.21875,33.9403409 61.21875,34.53125 L61.21875,74.4176136 C61.21875,75.3039773 61.8375,75.6178977 62.4375,75.6178977 L69.28125,75.6178977 C70.18125,75.6178977 70.5,75.0085227 70.5,74.4176136 L70.5,34.53125 C70.5,33.6448864 69.88125,33.4232955 69.28125,33.4232955 L62.4375,33.4232955 Z M62.4375,86.6051136 C61.5375,86.6051136 61.21875,87.1221591 61.21875,87.7130682 L61.21875,95.46875 C61.21875,96.3551136 61.8375,96.5767045 62.4375,96.5767045 L69.5625,96.5767045 C70.4625,96.5767045 70.78125,96.0596591 70.78125,95.46875 L70.78125,87.7130682 C70.78125,86.8267045 70.1625,86.6051136 69.5625,86.6051136 L62.4375,86.6051136 Z" id="Shape"></path>
            </g>
        </g>
    </g>
</svg>