<?xml version="1.0" ?><svg height="64" viewBox="0 0 64 64" width="64" xmlns="http://www.w3.org/2000/svg"><defs><style>.cls-1{fill:none;stroke:#000;stroke-linejoin:round;stroke-width:2px;}</style></defs><title/><g data-name="7-Online Content" id="_7-Online_Content"><line class="cls-1" x1="1" x2="63" y1="10" y2="10"/><line class="cls-1" x1="4" x2="6" y1="6" y2="6"/><line class="cls-1" x1="8" x2="10" y1="6" y2="6"/><line class="cls-1" x1="58" x2="60" y1="6" y2="6"/><path class="cls-1" d="M61,2H3A2,2,0,0,0,1,4V50a1.959,1.959,0,0,0,2,2H25V62L39,52H61a1.959,1.959,0,0,0,2-2V4A2,2,0,0,0,61,2Z"/><rect class="cls-1" height="16" rx="1" ry="1" width="52" x="6" y="15"/><rect class="cls-1" height="12" width="16" x="6" y="35"/><line class="cls-1" x1="6" x2="22" y1="47" y2="35"/><rect class="cls-1" height="4" width="32" x="26" y="35"/><line class="cls-1" x1="25" x2="27" y1="43" y2="43"/><line class="cls-1" x1="29" x2="31" y1="43" y2="43"/><line class="cls-1" x1="57" x2="59" y1="47" y2="47"/><line class="cls-1" x1="33" x2="59" y1="43" y2="43"/><line class="cls-1" x1="25" x2="55" y1="47" y2="47"/><polyline class="cls-1" points="13 19 10 19 10 22"/></g></svg>