<?xml version="1.0" encoding="utf-8"?>
<!-- Generator: Adobe Illustrator 15.0.0, SVG Export Plug-In . SVG Version: 6.00 Build 0)  -->
<!DOCTYPE svg PUBLIC "-//W3C//DTD SVG 1.1//EN" "http://www.w3.org/Graphics/SVG/1.1/DTD/svg11.dtd">
<svg version="1.1" id="Слой_1" xmlns="http://www.w3.org/2000/svg" xmlns:xlink="http://www.w3.org/1999/xlink" x="0px" y="0px"
	 width="50px" height="50px" viewBox="0 0 50 50" enable-background="new 0 0 50 50" xml:space="preserve">
<path d="M27,50h-4c-0.552,0-1-0.447-1-1v-4c0-0.553,0.448-1,1-1h4c0.553,0,1,0.447,1,1v4C28,49.553,27.553,50,27,50z"/>
<path d="M27,40h-4c-0.552,0-1-0.447-1-1V1c0-0.552,0.448-1,1-1h4c0.553,0,1,0.448,1,1v38C28,39.553,27.553,40,27,40z"/>
</svg>
